<svg width="163" height="25" viewBox="0 0 163 25" fill="none" xmlns="http://www.w3.org/2000/svg">
<g opacity="0.5" clip-path="url(#clip0_145_934)">
<g clip-path="url(#clip1_145_934)">
<path d="M0 8.82812V11.4822H5.32238V24.619H8.44752V11.4822H13.7757V8.82812H0Z" fill="#2D1F13"/>
<path d="M33.9093 8.8311L31.6566 18.9269L31.5545 19.4714C31.5545 19.4714 31.5078 19.6975 31.4669 19.8612C31.3794 19.5041 31.2802 19.162 31.2131 18.9299L28.2046 8.82812H25.5668L22.605 18.7127C22.605 18.7127 22.4446 19.3494 22.3103 19.9028C22.1849 19.3256 22.0623 18.7067 22.0623 18.7067L19.8301 8.82812H16.6641L20.4954 24.619H23.5038L26.5239 14.5351C26.5239 14.5351 26.7077 13.8001 26.8624 13.208C27.0199 13.815 27.2038 14.5351 27.2038 14.5351L30.0867 24.619H33.1448L36.9702 8.82812H33.9093V8.8311Z" fill="#2D1F13"/>
<path d="M48.1791 8.58594C43.4433 8.58594 40.2598 11.8619 40.2598 16.7268C40.2598 21.5917 43.4462 24.8648 48.1791 24.8648C52.9121 24.8648 56.1277 21.6007 56.1277 16.7268C56.1277 11.853 52.9325 8.58594 48.1791 8.58594ZM48.1791 22.169C45.1649 22.169 43.4374 20.1814 43.4374 16.7268C43.4374 13.2723 45.1649 11.2877 48.1791 11.2877C51.1934 11.2877 52.9413 13.2693 52.9413 16.7268C52.9413 20.1843 51.2109 22.169 48.1791 22.169Z" fill="#2D1F13"/>
<path d="M77.9644 20.3272C76.9985 21.6155 75.8401 22.166 74.0952 22.166C71.1042 22.166 69.3739 20.1784 69.3739 16.7239C69.3739 13.2693 71.1042 11.2847 74.0952 11.2847C76.0239 11.2847 76.8847 11.9333 77.7251 13.0611L77.8272 13.186L80.5906 11.7399L80.468 11.5525C79.1316 9.55594 77.0423 8.58594 74.0952 8.58594C69.3564 8.58594 66.1758 11.8619 66.1758 16.7268C66.1758 21.5917 69.3564 24.8648 74.0952 24.8648C76.8993 24.8648 79.1958 23.7847 80.538 21.8357L80.6723 21.6602L78.0548 20.1933L77.9615 20.3301L77.9644 20.3272Z" fill="#2D1F13"/>
<path d="M96.4015 8.82812V15.0528H88.38V8.82812H85.2461V24.619H88.38V17.7099H96.4015V24.619H99.5179V8.82812H96.4015Z" fill="#2D1F13"/>
<path d="M112.777 8.82812H109.757L103.014 24.619H106.273C106.273 24.619 107.691 21.1942 107.79 20.9621H114.843C114.937 21.1882 116.393 24.619 116.393 24.619H119.728L112.9 8.82812H112.777ZM113.845 18.5103H108.782C108.972 18.0491 110.136 15.2581 110.136 15.2581C110.53 14.309 111.009 13.0235 111.289 12.2112C111.546 12.8926 111.948 13.8894 112.299 14.7463L112.488 15.2403C112.488 15.2403 113.518 17.7069 113.845 18.5133V18.5103Z" fill="#2D1F13"/>
<path d="M146.142 13.6692C146.037 10.6997 143.974 8.83705 140.23 8.83705L132.597 8.82812H132.398V24.619H135.474V18.5252H139.305C139.407 18.7067 142.926 24.619 142.926 24.619H146.53C146.53 24.619 143.005 18.6621 142.76 18.2574C144.266 17.8736 146.142 16.4543 146.142 13.6692ZM135.477 11.396C135.839 11.396 140.23 11.4079 140.23 11.4079C142.057 11.4079 143.142 12.2618 143.142 13.699C143.142 15.1361 142.083 15.9752 140.23 15.9752C140.23 15.9752 135.839 15.9574 135.477 15.9574V11.396Z" fill="#2D1F13"/>
<path d="M157.392 15.1736C154.103 14.3465 153.552 13.8228 153.552 12.9658C153.552 11.8917 154.614 11.243 156.406 11.243C158.197 11.243 159.397 11.6834 160.535 12.6683L160.666 12.7784L160.683 12.7546L162.595 10.6301C160.847 9.24054 158.944 8.58594 156.613 8.58594C152.951 8.58594 150.4 10.4278 150.4 13.0759C150.4 16.105 152.612 16.8816 156.26 17.795C159.271 18.5568 160.231 19.131 160.231 20.1635C160.231 21.5412 159.055 22.2106 156.639 22.2106C154.993 22.2106 153.213 21.5322 152.02 20.4283L151.903 20.3272L151.69 20.4968L149.934 22.4398C151.594 24.0049 153.887 24.8648 156.438 24.8648C162.481 24.8648 163.388 21.8209 163.388 20.0028C163.388 16.9589 160.672 16.0187 157.395 15.1736H157.392Z" fill="#2D1F13"/>
<path d="M123.309 8.82812V24.619H126.434V8.82812H126.238H123.309Z" fill="#2D1F13"/>
<path d="M120.979 5.9569L118.059 2.9844L120.979 0L123.903 2.9844L120.979 5.9569Z" fill="#2D1F13"/>
<path d="M128.76 5.97848L125.836 3.00003L128.76 0.015625L131.684 3.00003L128.76 5.97848Z" fill="#2D1F13"/>
</g>
</g>
<defs>
<clipPath id="clip0_145_934">
<rect width="163" height="25" fill="white"/>
</clipPath>
<clipPath id="clip1_145_934">
<rect width="163.386" height="24.8631" fill="white"/>
</clipPath>
</defs>
</svg>
