<svg width="16" height="16" viewBox="0 0 16 16" fill="none" xmlns="http://www.w3.org/2000/svg">
<path d="M3.33333 6.66665H4.66666C5.99999 6.66665 6.66666 5.99998 6.66666 4.66665V3.33331C6.66666 1.99998 5.99999 1.33331 4.66666 1.33331H3.33333C1.99999 1.33331 1.33333 1.99998 1.33333 3.33331V4.66665C1.33333 5.99998 1.99999 6.66665 3.33333 6.66665Z" stroke="#222222" stroke-miterlimit="10" stroke-linecap="round" stroke-linejoin="round"/>
<path d="M11.3333 6.66665H12.6667C14 6.66665 14.6667 5.99998 14.6667 4.66665V3.33331C14.6667 1.99998 14 1.33331 12.6667 1.33331H11.3333C9.99999 1.33331 9.33333 1.99998 9.33333 3.33331V4.66665C9.33333 5.99998 9.99999 6.66665 11.3333 6.66665Z" stroke="#222222" stroke-miterlimit="10" stroke-linecap="round" stroke-linejoin="round"/>
<path d="M11.3333 14.6666H12.6667C14 14.6666 14.6667 14 14.6667 12.6666V11.3333C14.6667 9.99998 14 9.33331 12.6667 9.33331H11.3333C9.99999 9.33331 9.33333 9.99998 9.33333 11.3333V12.6666C9.33333 14 9.99999 14.6666 11.3333 14.6666Z" stroke="#222222" stroke-miterlimit="10" stroke-linecap="round" stroke-linejoin="round"/>
<path d="M3.33333 14.6666H4.66666C5.99999 14.6666 6.66666 14 6.66666 12.6666V11.3333C6.66666 9.99998 5.99999 9.33331 4.66666 9.33331H3.33333C1.99999 9.33331 1.33333 9.99998 1.33333 11.3333V12.6666C1.33333 14 1.99999 14.6666 3.33333 14.6666Z" stroke="#222222" stroke-miterlimit="10" stroke-linecap="round" stroke-linejoin="round"/>
</svg>
