<svg width="16" height="16" viewBox="0 0 16 16" fill="none" xmlns="http://www.w3.org/2000/svg">
<g clip-path="url(#clip0_145_1054)">
<path d="M11.2895 15.9997H1.28947C0.855263 15.9997 0.5 15.6514 0.5 15.2256V9.03201C0.5 8.6062 0.855263 8.25781 1.28947 8.25781H11.2895C11.7237 8.25781 12.0789 8.6062 12.0789 9.03201V15.2256C12.0789 15.6514 11.7237 15.9997 11.2895 15.9997ZM1.28947 8.77394C1.14474 8.77394 1.02632 8.89007 1.02632 9.03201V15.2256C1.02632 15.3675 1.14474 15.4836 1.28947 15.4836H11.2895C11.4342 15.4836 11.5526 15.3675 11.5526 15.2256V9.03201C11.5526 8.89007 11.4342 8.77394 11.2895 8.77394H1.28947Z" fill="#222222"/>
<path d="M7.07956 14.1954H2.07956C1.93483 14.1954 1.81641 14.0793 1.81641 13.9374V10.3245C1.81641 10.1825 1.93483 10.0664 2.07956 10.0664H7.07956C7.2243 10.0664 7.34272 10.1825 7.34272 10.3245V13.9374C7.34272 14.0793 7.2243 14.1954 7.07956 14.1954ZM2.34272 13.6793H6.81641V10.5825H2.34272V13.6793Z" fill="#222222"/>
<path d="M9.31558 12.1307C8.80243 12.1307 8.39453 11.7307 8.39453 11.2274C8.39453 10.7242 8.80243 10.3242 9.31558 10.3242C9.82874 10.3242 10.2366 10.7242 10.2366 11.2274C10.2366 11.7307 9.82874 12.1307 9.31558 12.1307ZM9.31558 10.8403C9.0919 10.8403 8.92085 11.0081 8.92085 11.2274C8.92085 11.4468 9.0919 11.6145 9.31558 11.6145C9.53927 11.6145 9.71032 11.4468 9.71032 11.2274C9.71032 11.0081 9.53927 10.8403 9.31558 10.8403Z" fill="#222222"/>
<path d="M10.2381 13.4185H8.39597C8.25123 13.4185 8.13281 13.3023 8.13281 13.1604C8.13281 13.0185 8.25123 12.9023 8.39597 12.9023H10.2381C10.3828 12.9023 10.5012 13.0185 10.5012 13.1604C10.5012 13.3023 10.3828 13.4185 10.2381 13.4185Z" fill="#222222"/>
<path d="M14.7091 16H13.1301C12.9854 16 12.867 15.8839 12.867 15.7419C12.867 15.6 12.9854 15.4839 13.1301 15.4839H14.7091C14.8538 15.4839 14.9722 15.3677 14.9722 15.2258V0.774194C14.9722 0.632258 14.8538 0.516129 14.7091 0.516129H6.55119C6.40646 0.516129 6.28803 0.632258 6.28803 0.774194V7.22581C6.28803 7.36774 6.16961 7.48387 6.02488 7.48387C5.88014 7.48387 5.76172 7.36774 5.76172 7.22581V0.774194C5.76172 0.348387 6.11698 0 6.55119 0H14.7091C15.1433 0 15.4986 0.348387 15.4986 0.774194V15.2258C15.4986 15.6516 15.1433 16 14.7091 16Z" fill="#222222"/>
<path d="M13.9202 5.16066H7.34128C7.19655 5.16066 7.07812 5.04453 7.07812 4.9026C7.07812 4.76066 7.19655 4.64453 7.34128 4.64453H13.9202C14.065 4.64453 14.1834 4.76066 14.1834 4.9026C14.1834 5.04453 14.065 5.16066 13.9202 5.16066Z" fill="#222222"/>
<path d="M7.60495 3.87261C7.46022 3.87261 7.3418 3.75648 7.3418 3.61454V2.58228C7.3418 2.44035 7.46022 2.32422 7.60495 2.32422C7.74969 2.32422 7.86811 2.44035 7.86811 2.58228V3.61454C7.86811 3.75648 7.74969 3.87261 7.60495 3.87261Z" fill="#222222"/>
<path d="M7.60495 7.48198C7.46022 7.48198 7.3418 7.36585 7.3418 7.22392V6.19166C7.3418 6.04972 7.46022 5.93359 7.60495 5.93359C7.74969 5.93359 7.86811 6.04972 7.86811 6.19166V7.22392C7.86811 7.36585 7.74969 7.48198 7.60495 7.48198Z" fill="#222222"/>
</g>
<defs>
<clipPath id="clip0_145_1054">
<rect width="16" height="16" fill="white"/>
</clipPath>
</defs>
</svg>
