<svg width="16" height="16" viewBox="0 0 16 16" fill="none" xmlns="http://www.w3.org/2000/svg">
<path d="M13.5937 9.91958H12.0937C11.9702 9.91958 11.8704 10.0198 11.8704 10.1437V11.6493C11.8704 11.7732 11.9702 11.8734 12.0937 11.8734H13.5937C13.7172 11.8734 13.817 11.7732 13.817 11.6493V10.1437C13.817 10.0198 13.7172 9.91958 13.5937 9.91958ZM13.3704 11.4225H12.3196V10.3678H13.3704V11.4225ZM13.5937 12.588H12.0937C11.9702 12.588 11.8704 12.6882 11.8704 12.8121V14.3177C11.8704 14.4417 11.9702 14.5419 12.0937 14.5419H13.5937C13.7172 14.5419 13.817 14.4417 13.817 14.3177V12.8121C13.817 12.6882 13.7172 12.588 13.5937 12.588ZM13.3704 14.091H12.3196V13.0363H13.3704V14.091ZM3.63222 5.41859H5.30823C5.4317 5.41859 5.53152 5.31839 5.53152 5.19446V3.35926C5.53152 3.23533 5.4317 3.13514 5.30823 3.13514H3.63222C3.50876 3.13514 3.40893 3.23533 3.40893 3.35926V5.19446C3.40893 5.31839 3.50876 5.41859 3.63222 5.41859ZM3.85552 3.58603H5.08494V4.97034H3.85552V3.58603ZM7.34939 5.41859H9.02539C9.14886 5.41859 9.24869 5.31839 9.24869 5.19446V3.35926C9.24869 3.23533 9.14886 3.13514 9.02539 3.13514H7.34939C7.22592 3.13514 7.12609 3.23533 7.12609 3.35926V5.19446C7.12609 5.31839 7.22592 5.41859 7.34939 5.41859ZM7.57268 3.58603H8.8021V4.97034H7.57268V3.58603ZM3.63222 8.62755H5.30823C5.4317 8.62755 5.53152 8.52736 5.53152 8.40343V6.56823C5.53152 6.4443 5.4317 6.3441 5.30823 6.3441H3.63222C3.50876 6.3441 3.40893 6.4443 3.40893 6.56823V8.40343C3.40893 8.52736 3.50876 8.62755 3.63222 8.62755ZM3.85814 6.79235H5.08757V8.17666H3.85814V6.79235ZM7.34939 8.62755H9.02539C9.14886 8.62755 9.24869 8.52736 9.24869 8.40343V6.56823C9.24869 6.4443 9.14886 6.3441 9.02539 6.3441H7.34939C7.22592 6.3441 7.12609 6.4443 7.12609 6.56823V8.40343C7.12609 8.52736 7.22592 8.62755 7.34939 8.62755ZM7.57268 6.79235H8.8021V8.17666H7.57268V6.79235ZM5.31086 11.8339C5.43433 11.8339 5.53415 11.7337 5.53415 11.6098V9.77455C5.53415 9.65063 5.43433 9.55043 5.31086 9.55043H3.63485C3.51138 9.55043 3.41156 9.65063 3.41156 9.77455V11.6098C3.41156 11.7337 3.51138 11.8339 3.63485 11.8339H5.31086ZM3.85814 9.99868H5.08757V11.383H3.85814V9.99868ZM7.35201 11.8339H9.02802C9.15149 11.8339 9.25131 11.7337 9.25131 11.6098V9.77455C9.25131 9.65063 9.15149 9.55043 9.02802 9.55043H7.35201C7.22855 9.55043 7.12872 9.65063 7.12872 9.77455V11.6098C7.12872 11.7337 7.22855 11.8339 7.35201 11.8339ZM7.57531 9.99868H8.80473V11.383H7.57531V9.99868ZM15.7793 15.5517H15.2408V8.98616C15.2408 8.88069 15.1673 8.7884 15.0648 8.7673L10.8984 7.86289V1.98813C10.8958 1.86421 10.796 1.76401 10.6725 1.76401H10.021V0.224127C10.021 0.100198 9.92119 0 9.79772 0H2.86252C2.73905 0 2.63923 0.100198 2.63923 0.224127V1.76401H1.98774C1.86427 1.76401 1.76445 1.86421 1.76445 1.98813V15.5517H1.22329C1.09982 15.5517 1 15.6519 1 15.7759C1 15.8998 1.09982 16 1.22329 16H15.7741C15.8975 16 15.9974 15.8998 15.9974 15.7759C15.9974 15.6519 15.8975 15.5517 15.7741 15.5517H15.7767H15.7793ZM3.08581 0.448253H9.5718V1.76137H3.08581V0.448253ZM2.20841 2.21226H10.4466V15.5517H7.90368V13.1734C7.90368 13.0494 7.80385 12.9492 7.68039 12.9492H4.97198C4.84851 12.9492 4.74869 13.0494 4.74869 13.1734V15.5517H2.20841V2.21226ZM5.1979 13.3975H6.1042V15.5517H5.1979V13.3975ZM6.55079 15.5517V13.3975H7.45709V15.5517H6.55079ZM10.8932 15.5517V8.32432L14.789 9.1681V15.5517H10.8932Z" fill="white"/>
</svg>
