<svg width="16" height="16" viewBox="0 0 16 16" fill="none" xmlns="http://www.w3.org/2000/svg">
<g clip-path="url(#clip0_145_993)">
<path d="M14.9003 5.61712H14.6521C14.7082 5.25385 14.6589 4.93578 14.5059 4.66961C14.2 4.13726 13.707 4.18414 13.532 3.90457C13.2702 3.48606 13.979 2.81979 13.6153 2.05978C13.3042 1.41025 12.3319 1.0135 11.5364 1.20937C10.4401 1.47889 10.3313 2.72605 9.74316 2.78129C9.27912 2.82482 8.94257 2.06982 7.9482 2.02462C7.48926 2.00454 7.02522 2.14181 6.56798 2.43476C6.4303 2.52181 6.3912 2.70428 6.48129 2.84156C6.57138 2.97715 6.75665 3.01566 6.89433 2.92693C7.24279 2.70261 7.58784 2.59715 7.9193 2.61221C8.73009 2.65072 8.98846 3.44254 9.79925 3.36888C10.8089 3.27681 10.8395 1.98947 11.6809 1.78189C12.1959 1.65466 12.886 1.91749 13.0747 2.31256C13.311 2.8064 12.5682 3.48606 13.0237 4.21594C13.328 4.70141 13.7954 4.63111 13.9858 4.96257C14.0827 5.12997 14.1031 5.35094 14.0453 5.62046H9.16184C9.39811 4.44194 10.916 4.04519 11.7166 4.9542C11.7676 5.01613 11.8407 5.05464 11.9223 5.06133C12.0022 5.06803 12.0821 5.04292 12.1432 4.99102C12.2044 4.93913 12.2418 4.8638 12.2469 4.78512C12.2503 4.70476 12.2231 4.62776 12.1687 4.56917C11.6384 3.96484 10.797 3.72378 10.0185 3.94977C9.24173 4.17577 8.6689 4.83032 8.55672 5.62046H7.09151C7.30738 4.78679 7.23429 4.2059 6.87564 3.85268C6.31641 3.30527 5.54811 3.76395 5.12147 3.40906C4.57074 2.95204 5.19626 1.71827 4.39396 1.18593C3.81264 0.800901 2.79447 1.06205 2.43582 1.63792C2.06187 2.24225 2.6041 2.68085 2.37803 3.26509C2.21145 3.69866 1.7865 3.73549 1.57403 4.32476C1.43635 4.70979 1.46355 5.14671 1.65732 5.62046H1.10149C0.788736 5.62046 0.489575 5.75271 0.282202 5.98206C0.0731296 6.2114 -0.0254575 6.51775 0.00853806 6.8241C0.469178 10.7899 3.88743 13.84 8.00259 13.84C12.1177 13.84 15.5394 10.7815 15.9966 6.8241C16.0306 6.51775 15.932 6.2114 15.723 5.98038C15.5139 5.75104 15.2164 5.61879 14.9037 5.62046L14.9003 5.61712ZM2.13666 4.51727C2.28114 4.11717 2.70098 4.07532 2.93555 3.471C3.22622 2.72103 2.76388 2.23221 2.94405 1.94092C3.12933 1.64294 3.76675 1.47721 4.05741 1.66973C4.48575 1.95431 3.93842 3.19478 4.73222 3.85435C5.36624 4.38167 6.14473 3.96484 6.45069 4.26616C6.65807 4.46872 6.66316 4.94582 6.46939 5.61712H4.46365L4.1458 4.28625C4.1084 4.12722 3.94692 4.03012 3.78714 4.06695C3.62566 4.10378 3.52708 4.26114 3.56447 4.42018L3.84833 5.61712H2.31004C2.08737 5.18521 2.02617 4.81525 2.13326 4.51727H2.13666ZM15.4 6.75379C14.9717 10.4551 11.7897 13.2474 8.00089 13.2474C4.21209 13.2474 1.0284 10.4551 0.60006 6.75379C0.584762 6.61317 0.630656 6.47422 0.725844 6.36876C0.821031 6.26329 0.957014 6.2047 1.09979 6.2047H14.9003C15.0431 6.2047 15.179 6.26329 15.2742 6.36876C15.3694 6.47422 15.4153 6.61317 15.4 6.75379ZM4.66593 10.9155C4.60474 10.9155 4.54524 10.897 4.49595 10.8619C3.79564 10.3781 3.20242 9.75702 2.75878 9.03551C2.67379 8.89656 2.71798 8.71576 2.85906 8.63206C3.00015 8.54836 3.18372 8.59189 3.26871 8.73083C3.66986 9.38203 4.20359 9.94284 4.8376 10.3798C5.07897 10.5438 4.95659 10.9155 4.66593 10.9155ZM11.3528 14.7055C11.3528 14.8679 11.2186 15.0001 11.0537 15.0001H4.94639C4.78151 15.0001 4.64723 14.8679 4.64723 14.7055C4.64723 14.5431 4.78151 14.4108 4.94639 14.4108H11.0554C11.2203 14.4108 11.3545 14.5431 11.3545 14.7055H11.3528Z" fill="white"/>
</g>
<defs>
<clipPath id="clip0_145_993">
<rect width="16" height="16" fill="white"/>
</clipPath>
</defs>
</svg>
