<svg width="16" height="16" viewBox="0 0 16 16" fill="none" xmlns="http://www.w3.org/2000/svg">
<path d="M8.50041 4.86252C8.33831 4.86252 8.21094 4.73224 8.21094 4.56644V2.44061C8.21094 2.27481 8.33831 2.14453 8.50041 2.14453C8.66252 2.14453 8.78988 2.27481 8.78988 2.44061V4.56644C8.78988 4.73224 8.66252 4.86252 8.50041 4.86252Z" fill="white"/>
<path d="M10.1505 2.67654H6.85046C6.75783 2.67654 6.67099 2.63509 6.61888 2.55811C6.56677 2.48113 6.54941 2.38638 6.57256 2.29756L7.15151 0.213175C7.18625 0.0888231 7.30204 0 7.42941 0H9.57151C9.69888 0 9.81467 0.0888231 9.84941 0.213175L10.4284 2.29756C10.4515 2.38638 10.4341 2.48113 10.382 2.55811C10.3299 2.63509 10.2431 2.67654 10.1505 2.67654ZM7.25572 2.08438H9.79151L9.35151 0.603997H7.64941L7.25572 2.08438Z" fill="white"/>
<path d="M13.7113 15.9998C13.5492 15.9998 13.4219 15.8696 13.4219 15.7038V13.3351C13.4219 13.1693 13.5492 13.0391 13.7113 13.0391C13.8735 13.0391 14.0008 13.1693 14.0008 13.3351V15.7038C14.0008 15.8696 13.8735 15.9998 13.7113 15.9998Z" fill="white"/>
<path d="M3.28947 15.9998C3.12737 15.9998 3 15.8696 3 15.7038V13.3351C3 13.1693 3.12737 13.0391 3.28947 13.0391C3.45158 13.0391 3.57895 13.1693 3.57895 13.3351V15.7038C3.57895 15.8696 3.45158 15.9998 3.28947 15.9998Z" fill="white"/>
<path d="M8.88181 12.0218H8.1176C7.95549 12.0218 7.82812 11.8916 7.82812 11.7258C7.82812 11.56 7.95549 11.4297 8.1176 11.4297H8.88181C9.04391 11.4297 9.17128 11.56 9.17128 11.7258C9.17128 11.8916 9.04391 12.0218 8.88181 12.0218Z" fill="white"/>
<path d="M13.7105 10.8382H3.28947C3.12737 10.8382 3 10.708 3 10.5422C3 10.3764 3.12737 10.2461 3.28947 10.2461H13.7105C13.8726 10.2461 14 10.3764 14 10.5422C14 10.708 13.8726 10.8382 13.7105 10.8382Z" fill="white"/>
<path d="M13.7105 13.6319H3.28947C3.12737 13.6319 3 13.5016 3 13.3358V5.91609C3 4.98641 3.73526 4.23438 4.64421 4.23438H12.3558C13.2647 4.23438 14 4.98641 14 5.91609V13.3358C14 13.5016 13.8726 13.6319 13.7105 13.6319ZM3.57895 13.0397H13.4211V5.93386C13.4211 5.32986 12.9463 4.84429 12.3558 4.84429H4.64421C4.06526 4.84429 3.59053 5.32394 3.57895 5.91609V13.0397Z" fill="white"/>
<path d="M8.50041 10.8365C8.33831 10.8365 8.21094 10.7062 8.21094 10.5404V4.56561C8.21094 4.39981 8.33831 4.26953 8.50041 4.26953C8.66252 4.26953 8.78988 4.39981 8.78988 4.56561V10.5404C8.78988 10.7062 8.66252 10.8365 8.50041 10.8365Z" fill="white"/>
<path d="M7.72307 8.82575C7.56096 8.82575 7.43359 8.69548 7.43359 8.52967V7.48748C7.43359 7.32168 7.56096 7.19141 7.72307 7.19141C7.88517 7.19141 8.01254 7.32168 8.01254 7.48748V8.52967C8.01254 8.69548 7.88517 8.82575 7.72307 8.82575Z" fill="white"/>
<path d="M9.29924 8.82575C9.14292 8.82575 9.01556 8.68956 9.00977 8.52967V7.48748C9.00977 7.3276 9.14292 7.19733 9.29924 7.19141C9.46134 7.19141 9.58871 7.32168 9.58871 7.48748V8.52967C9.58871 8.69548 9.46134 8.82575 9.29924 8.82575Z" fill="white"/>
<path d="M9.00947 4.5609H7.99052C7.82842 4.5609 7.70105 4.43063 7.70105 4.26483C7.70105 4.09902 7.82842 3.96875 7.99052 3.96875H9.00947C9.17158 3.96875 9.29894 4.09902 9.29894 4.26483C9.29894 4.43063 9.17158 4.5609 9.00947 4.5609Z" fill="white"/>
</svg>
