<svg width="16" height="16" viewBox="0 0 16 16" fill="none" xmlns="http://www.w3.org/2000/svg">
<g clip-path="url(#clip0_145_1016)">
<path d="M10.3678 15.9983C10.2399 15.9983 10.1187 15.925 10.0615 15.805L6.70199 8.50831C6.62457 8.34165 6.70199 8.14165 6.87031 8.06498C7.03862 7.98831 7.24059 8.06498 7.31802 8.23165L10.6775 15.5283C10.755 15.695 10.6775 15.895 10.5092 15.9716C10.4621 15.9916 10.415 16.0016 10.3678 16.0016V15.9983Z" fill="#222222"/>
<path d="M4.81487 7.90271C4.68695 7.90271 4.56577 7.82938 4.50854 7.70938L3.13174 4.71604C3.05432 4.54938 3.13174 4.34938 3.29669 4.27604C3.465 4.19938 3.66698 4.27604 3.74104 4.43938L5.11783 7.43271C5.19525 7.59938 5.11783 7.79938 4.95288 7.87604C4.90576 7.89604 4.85863 7.90604 4.81487 7.90604V7.90271Z" fill="#222222"/>
<path d="M6.32659 7.21762C6.19867 7.21762 6.07749 7.14429 6.02026 7.02429L4.64346 4.03096C4.56604 3.86429 4.64346 3.66429 4.80841 3.59096C4.97336 3.51762 5.1787 3.59096 5.25275 3.75429L6.62955 6.74762C6.70697 6.91429 6.62955 7.11429 6.46124 7.19096C6.41411 7.21096 6.36698 7.22096 6.32322 7.22096L6.32659 7.21762Z" fill="#222222"/>
<path d="M7.83824 6.53937C7.71033 6.53937 7.58914 6.46603 7.53191 6.34603L6.15512 3.3527C6.0777 3.18603 6.15512 2.98603 6.32343 2.9127C6.49174 2.83603 6.69035 2.9127 6.77114 3.07603L8.14794 6.06937C8.22536 6.23603 8.14794 6.43603 7.97963 6.5127C7.93586 6.5327 7.88537 6.5427 7.84161 6.5427L7.83824 6.53937Z" fill="#222222"/>
<path d="M6.31294 8.85368C6.08067 8.85368 5.84504 8.81368 5.62286 8.73035C5.12466 8.54701 4.72744 8.18368 4.50864 7.70701C4.43121 7.54035 4.50864 7.34035 4.67695 7.26368C4.84526 7.18701 5.04723 7.26368 5.12129 7.43035C5.26604 7.74368 5.52861 7.98368 5.85513 8.10368C6.18503 8.22368 6.54522 8.21035 6.86838 8.06368C7.53153 7.76368 7.83112 6.99035 7.53153 6.34035C7.4541 6.17368 7.53153 5.97368 7.69984 5.89701C7.86815 5.82035 8.06676 5.89701 8.14755 6.06368C8.60199 7.04701 8.15428 8.21701 7.15114 8.67035C6.88521 8.79035 6.60244 8.85035 6.31631 8.85035L6.31294 8.85368Z" fill="#222222"/>
<path d="M7.16848 15.7385C7.12135 15.7385 7.07422 15.7285 7.03046 15.7085C6.86215 15.6318 6.78473 15.4352 6.86215 15.2652L10.2217 7.9685C10.2991 7.80183 10.4977 7.7285 10.6694 7.80183C10.8377 7.8785 10.9117 8.07517 10.8377 8.24517L7.47817 15.5418C7.42095 15.6652 7.29976 15.7385 7.17185 15.7385H7.16848Z" fill="#222222"/>
<path d="M12.7223 7.63691C12.6752 7.63691 12.6281 7.62691 12.5843 7.60691C12.416 7.53024 12.342 7.33357 12.4194 7.16357L13.1667 5.54024C13.2441 5.37358 13.4427 5.29691 13.6144 5.37358C13.7827 5.45024 13.8568 5.64691 13.7793 5.81691L13.032 7.44024C12.9748 7.56357 12.8536 7.63691 12.7257 7.63691H12.7223Z" fill="#222222"/>
<path d="M9.70024 6.2761C9.65311 6.2761 9.60598 6.2661 9.56222 6.2461C9.39391 6.16944 9.31985 5.97277 9.39391 5.80277L10.1412 4.17944C10.2186 4.01277 10.4172 3.93944 10.5889 4.01277C10.7572 4.08944 10.8313 4.2861 10.7572 4.45277L10.0099 6.0761C9.95271 6.19944 9.83152 6.27277 9.70361 6.27277L9.70024 6.2761Z" fill="#222222"/>
<path d="M11.2216 8.5872C10.9422 8.5872 10.6594 8.53053 10.3901 8.4072C9.90539 8.1872 9.5351 7.7972 9.34659 7.30386C9.15808 6.81053 9.17491 6.2772 9.39708 5.80053C9.47451 5.63386 9.67312 5.56053 9.8448 5.63386C10.0131 5.71053 10.0872 5.9072 10.0131 6.0772C9.86836 6.39053 9.85826 6.74386 9.98281 7.07053C10.1074 7.3972 10.3531 7.6572 10.6763 7.80053C11.3394 8.10053 12.1271 7.8172 12.4233 7.16386C12.5008 6.9972 12.6994 6.92053 12.8711 6.9972C13.0394 7.07386 13.1134 7.27053 13.036 7.44053C12.7061 8.16053 11.9824 8.58386 11.225 8.58386L11.2216 8.5872Z" fill="#222222"/>
<path d="M13.4199 6.12776C13.3727 6.12776 13.3256 6.11776 13.2818 6.09776C13.1135 6.02109 13.0395 5.82442 13.1135 5.65442C13.4131 5.00442 13.1135 4.23109 12.4504 3.93109C11.7872 3.63109 10.9995 3.91776 10.7033 4.56776C10.6259 4.73442 10.4273 4.80776 10.2556 4.73442C10.0873 4.65776 10.0132 4.46109 10.0873 4.29442C10.5417 3.31109 11.7233 2.87442 12.7264 3.32776C13.7296 3.78109 14.1773 4.95109 13.7228 5.93442C13.6656 6.05776 13.5444 6.13109 13.4165 6.13109L13.4199 6.12776Z" fill="#222222"/>
<path d="M8.5 14.8533C4.36288 14.8533 1 11.5233 1 7.42667C1 3.33 4.36288 0 8.5 0C12.6371 0 16 3.33 16 7.42667C16 11.5233 12.6371 14.8533 8.5 14.8533ZM8.5 0.666667C4.73654 0.666667 1.67325 3.7 1.67325 7.42667C1.67325 11.1533 4.73654 14.1867 8.5 14.1867C12.2635 14.1867 15.3268 11.1533 15.3268 7.42667C15.3268 3.7 12.2635 0.666667 8.5 0.666667Z" fill="#222222"/>
</g>
<defs>
<clipPath id="clip0_145_1016">
<rect width="16" height="16" fill="white"/>
</clipPath>
</defs>
</svg>
