<svg width="171" height="26" viewBox="0 0 171 26" fill="none" xmlns="http://www.w3.org/2000/svg">
<g clip-path="url(#clip0_145_1188)">
<path d="M0 9.23047V12.006H5.57041V25.7434H8.8412V12.006H14.4177V9.23047H0Z" fill="white"/>
<path d="M35.4903 9.23358L33.1326 19.791L33.0257 20.3604C33.0257 20.3604 32.9769 20.5969 32.9341 20.768C32.8425 20.3947 32.7387 20.0368 32.6684 19.7941L29.5198 9.23047H26.759L23.6593 19.567C23.6593 19.567 23.4913 20.2329 23.3508 20.8116C23.2195 20.208 23.0912 19.5608 23.0912 19.5608L20.7549 9.23047H17.4414L21.4512 25.7434H24.5999L27.7607 15.1984C27.7607 15.1984 27.9531 14.4298 28.115 13.8107C28.2799 14.4454 28.4723 15.1984 28.4723 15.1984L31.4896 25.7434H34.6901L38.6939 9.23047H35.4903V9.23358Z" fill="white"/>
<path d="M50.4251 8.97656C45.4686 8.97656 42.1367 12.4024 42.1367 17.4897C42.1367 22.5771 45.4716 25.9998 50.4251 25.9998C55.3787 25.9998 58.7441 22.5864 58.7441 17.4897C58.7441 12.393 55.4 8.97656 50.4251 8.97656ZM50.4251 23.1807C47.2704 23.1807 45.4625 21.1022 45.4625 17.4897C45.4625 13.8772 47.2704 11.8018 50.4251 11.8018C53.5799 11.8018 55.4092 13.8741 55.4092 17.4897C55.4092 21.1053 53.5982 23.1807 50.4251 23.1807Z" fill="white"/>
<path d="M81.5977 21.2547C80.5869 22.602 79.3745 23.1776 77.5482 23.1776C74.4179 23.1776 72.6069 21.0991 72.6069 17.4866C72.6069 13.8741 74.4179 11.7987 77.5482 11.7987C79.5669 11.7987 80.4678 12.477 81.3473 13.6563L81.4542 13.787L84.3463 12.2748L84.218 12.0788C82.8193 9.99092 80.6327 8.97656 77.5482 8.97656C72.5886 8.97656 69.2598 12.4024 69.2598 17.4897C69.2598 22.5771 72.5886 25.9998 77.5482 25.9998C80.483 25.9998 82.8865 24.8703 84.2913 22.8322L84.4318 22.6487L81.6924 21.1147L81.5947 21.2578L81.5977 21.2547Z" fill="white"/>
<path d="M100.894 9.23047V15.7398H92.4987V9.23047H89.2188V25.7434H92.4987V18.5184H100.894V25.7434H104.156V9.23047H100.894Z" fill="white"/>
<path d="M118.033 9.23047H114.872L107.814 25.7434H111.226C111.226 25.7434 112.71 22.162 112.814 21.9193H120.195C120.293 22.1558 121.817 25.7434 121.817 25.7434H125.307L118.161 9.23047H118.033ZM119.151 19.3554H113.852C114.051 18.8731 115.269 15.9545 115.269 15.9545C115.681 14.9619 116.182 13.6177 116.475 12.7683C116.744 13.4808 117.166 14.5232 117.532 15.4193L117.731 15.9358C117.731 15.9358 118.809 18.5153 119.151 19.3585V19.3554Z" fill="white"/>
<path d="M152.954 14.2929C152.844 11.1876 150.685 9.2398 146.767 9.2398L138.778 9.23047H138.57V25.7434H141.789V19.371H145.799C145.906 19.5608 149.589 25.7434 149.589 25.7434H153.361C153.361 25.7434 149.671 19.5141 149.415 19.0909C150.991 18.6895 152.954 17.2053 152.954 14.2929ZM141.792 11.9157C142.171 11.9157 146.767 11.9282 146.767 11.9282C148.679 11.9282 149.815 12.8212 149.815 14.3241C149.815 15.8269 148.706 16.7044 146.767 16.7044C146.767 16.7044 142.171 16.6857 141.792 16.6857V11.9157Z" fill="white"/>
<path d="M164.728 15.8655C161.286 15.0005 160.709 14.4529 160.709 13.5567C160.709 12.4335 161.82 11.7552 163.696 11.7552C165.571 11.7552 166.826 12.2157 168.017 13.2456L168.154 13.3607L168.173 13.3358L170.173 11.1142C168.344 9.6611 166.352 8.97656 163.912 8.97656C160.08 8.97656 157.411 10.9026 157.411 13.6719C157.411 16.8394 159.725 17.6515 163.543 18.6068C166.695 19.4033 167.699 20.0039 167.699 21.0836C167.699 22.5242 166.469 23.2243 163.94 23.2243C162.217 23.2243 160.355 22.5149 159.105 21.3605L158.983 21.2547L158.76 21.432L156.922 23.4639C158.66 25.1005 161.06 25.9998 163.729 25.9998C170.054 25.9998 171.004 22.8167 171.004 20.9155C171.004 17.7324 168.16 16.7492 164.731 15.8655H164.728Z" fill="white"/>
<path d="M129.053 9.23047V25.7434H132.324V9.23047H132.119H129.053Z" fill="white"/>
<path d="M126.616 6.2293L123.559 3.12087L126.616 0L129.676 3.12087L126.616 6.2293Z" fill="white"/>
<path d="M134.759 6.24724L131.699 3.13259L134.759 0.0117188L137.819 3.13259L134.759 6.24724Z" fill="white"/>
</g>
<defs>
<clipPath id="clip0_145_1188">
<rect width="171" height="26" fill="white"/>
</clipPath>
</defs>
</svg>
